<svg width="85" height="24" viewBox="0 0 85 24" fill="none" xmlns="http://www.w3.org/2000/svg">
<path d="M8.19422 23.3C6.03422 23.3 4.20422 22.57 2.70422 21.11C1.22422 19.63 0.484219 17.84 0.484219 15.74C0.484219 13.52 1.21422 11.73 2.67422 10.37C4.13422 9.01 5.92422 8.32 8.04422 8.3C9.68422 8.28 11.0942 8.68 12.2742 9.5C13.4742 10.3 14.0742 11.22 14.0742 12.26C14.0742 12.64 13.9442 12.96 13.6842 13.22C13.4442 13.46 13.0642 13.57 12.5442 13.55C12.0642 13.53 11.6342 13.3 11.2542 12.86C10.8742 12.42 10.5642 11.95 10.3242 11.45C10.0842 10.95 9.71422 10.49 9.21422 10.07C8.73422 9.65 8.15422 9.44 7.47422 9.44C6.45422 9.44 5.62422 9.88 4.98422 10.76C4.34422 11.64 4.02422 12.74 4.02422 14.06C4.02422 16.1 4.51422 17.74 5.49422 18.98C6.47422 20.2 7.76422 20.81 9.36422 20.81C11.1042 20.81 12.3942 19.99 13.2342 18.35C13.3942 18.11 13.6042 18.02 13.8642 18.08C14.1242 18.14 14.2342 18.32 14.1942 18.62C14.0342 19.9 13.4242 21 12.3642 21.92C11.3242 22.84 9.93422 23.3 8.19422 23.3ZM27.6914 20.3C27.7314 20.74 27.8414 21.09 28.0214 21.35C28.2214 21.59 28.4114 21.74 28.5914 21.8C28.7914 21.86 28.9614 21.94 29.1014 22.04C29.2614 22.14 29.3414 22.27 29.3414 22.43C29.3414 22.93 28.5314 23.18 26.9114 23.18C26.1114 23.18 25.5214 23.06 25.1414 22.82C24.7814 22.56 24.5714 22.08 24.5114 21.38C23.7114 22.66 22.3214 23.3 20.3414 23.3C18.6614 23.3 17.3014 22.91 16.2614 22.13C15.2414 21.33 14.7314 20.21 14.7314 18.77C14.7114 17.35 15.2214 16.25 16.2614 15.47C17.3014 14.67 18.6114 14.27 20.1914 14.27C21.6314 14.27 22.7914 14.61 23.6714 15.29L23.6114 14.69C23.4314 12.85 23.1114 11.51 22.6514 10.67C22.1914 9.83 21.4614 9.41 20.4614 9.41C19.8414 9.41 19.3214 9.6 18.9014 9.98C18.5014 10.36 18.2214 10.78 18.0614 11.24C17.9214 11.68 17.7114 12.09 17.4314 12.47C17.1514 12.85 16.8014 13.04 16.3814 13.04C15.9414 13.04 15.5814 12.92 15.3014 12.68C15.0414 12.42 14.9114 12.08 14.9114 11.66C14.9114 10.7 15.4314 9.9 16.4714 9.26C17.5314 8.62 18.8614 8.3 20.4614 8.3C22.3414 8.3 23.8614 8.86 25.0214 9.98C26.1814 11.08 26.8714 12.6 27.0914 14.54L27.6914 20.3ZM21.3314 22.16C22.1514 22.16 22.8114 21.86 23.3114 21.26C23.8314 20.66 24.0714 19.95 24.0314 19.13L23.9414 18.2C23.8814 17.34 23.5914 16.66 23.0714 16.16C22.5514 15.66 21.8914 15.41 21.0914 15.41C20.2514 15.41 19.5714 15.68 19.0514 16.22C18.5314 16.74 18.2714 17.45 18.2714 18.35C18.2714 19.41 18.5514 20.31 19.1114 21.05C19.6914 21.79 20.4314 22.16 21.3314 22.16ZM37.5159 8.3C38.3759 8.3 39.0459 8.54 39.5259 9.02C40.0259 9.5 40.2759 10.1 40.2759 10.82C40.2759 12.08 39.7559 12.71 38.7159 12.71C38.2759 12.71 37.9359 12.59 37.6959 12.35C37.4559 12.11 37.3059 11.84 37.2459 11.54C37.1859 11.24 37.0459 10.97 36.8259 10.73C36.6059 10.49 36.3059 10.37 35.9259 10.37C35.2659 10.37 34.7559 10.73 34.3959 11.45C34.0359 12.17 33.8559 13.05 33.8559 14.09V20.51C33.8559 20.95 34.0859 21.34 34.5459 21.68C35.0059 22.02 35.2359 22.28 35.2359 22.46V22.58C35.2359 22.86 35.0259 23 34.6059 23H29.9559C29.5359 23 29.3259 22.86 29.3259 22.58V22.46C29.3259 22.28 29.5159 22.02 29.8959 21.68C30.2759 21.34 30.4659 20.95 30.4659 20.51V12.44C30.4659 11.98 30.2459 11.59 29.8059 11.27C29.3859 10.93 29.1759 10.67 29.1759 10.49V10.4C29.1759 10.18 29.3559 9.97 29.7159 9.77L32.6559 8.42C33.2359 8.14 33.5259 8.31 33.5259 8.93V11.27C34.2059 9.29 35.5359 8.3 37.5159 8.3ZM54.1505 20.51C54.1505 20.95 54.3405 21.35 54.7205 21.71C55.1005 22.07 55.2905 22.33 55.2905 22.49V22.58C55.2905 22.86 55.1205 23 54.7805 23H51.6605C51.3005 23 51.1005 22.81 51.0605 22.43L50.9705 21.38C49.9705 22.66 48.5705 23.3 46.7705 23.3C44.8505 23.3 43.2005 22.61 41.8205 21.23C40.4605 19.85 39.7805 18.03 39.7805 15.77C39.7805 13.59 40.4505 11.8 41.7905 10.4C43.1505 9 44.8305 8.3 46.8305 8.3C48.3905 8.3 49.7005 8.81 50.7605 9.83V4.19C50.7605 3.81 50.6405 3.5 50.4005 3.26C50.1805 3.02 49.9505 2.83 49.7105 2.69C49.4905 2.53 49.3805 2.36 49.3805 2.18V2.12C49.3805 1.86 49.5605 1.66 49.9205 1.52L53.1005 0.499998C53.8005 0.259999 54.1505 0.439999 54.1505 1.04V20.51ZM47.5805 22.16C48.4005 22.16 49.1305 21.82 49.7705 21.14C50.4305 20.46 50.7605 19.51 50.7605 18.29V13.49C50.7605 12.49 50.3805 11.57 49.6205 10.73C48.8605 9.87 47.9705 9.44 46.9505 9.44C45.8305 9.44 44.9305 9.9 44.2505 10.82C43.5705 11.72 43.2205 12.96 43.2005 14.54C43.1605 16.64 43.5405 18.43 44.3405 19.91C45.1605 21.39 46.2405 22.14 47.5805 22.16ZM68.0763 18.59C68.2363 18.37 68.4363 18.29 68.6763 18.35C68.9363 18.41 69.0563 18.59 69.0363 18.89C68.8763 19.95 68.2563 20.95 67.1763 21.89C66.0963 22.83 64.6863 23.3 62.9463 23.3C60.9063 23.3 59.2063 22.6 57.8463 21.2C56.5063 19.8 55.8363 17.96 55.8363 15.68C55.8363 13.56 56.5263 11.8 57.9063 10.4C59.3063 9 61.0063 8.3 63.0063 8.3C64.8063 8.3 66.1863 8.75 67.1463 9.65C68.1263 10.53 68.6163 11.55 68.6163 12.71C68.6163 13.75 68.1063 14.45 67.0863 14.81L59.8263 17.48C60.2063 18.52 60.7763 19.33 61.5363 19.91C62.2963 20.49 63.1963 20.78 64.2363 20.78C65.1363 20.78 65.9163 20.58 66.5763 20.18C67.2563 19.76 67.7563 19.23 68.0763 18.59ZM62.4063 9.44C61.4663 9.44 60.7163 9.89 60.1563 10.79C59.5963 11.69 59.3163 12.87 59.3163 14.33C59.3163 15.01 59.3763 15.65 59.4963 16.25L64.4763 14.09C64.9963 13.85 65.2563 13.43 65.2563 12.83C65.2563 12.11 64.9763 11.37 64.4163 10.61C63.8763 9.83 63.2063 9.44 62.4063 9.44ZM82.4813 20.3C82.5213 20.74 82.6313 21.09 82.8113 21.35C83.0113 21.59 83.2013 21.74 83.3813 21.8C83.5813 21.86 83.7513 21.94 83.8913 22.04C84.0513 22.14 84.1313 22.27 84.1313 22.43C84.1313 22.93 83.3213 23.18 81.7013 23.18C80.9013 23.18 80.3113 23.06 79.9313 22.82C79.5713 22.56 79.3613 22.08 79.3013 21.38C78.5013 22.66 77.1113 23.3 75.1313 23.3C73.4513 23.3 72.0913 22.91 71.0513 22.13C70.0313 21.33 69.5212 20.21 69.5212 18.77C69.5013 17.35 70.0113 16.25 71.0513 15.47C72.0913 14.67 73.4013 14.27 74.9813 14.27C76.4213 14.27 77.5813 14.61 78.4613 15.29L78.4013 14.69C78.2213 12.85 77.9013 11.51 77.4413 10.67C76.9813 9.83 76.2513 9.41 75.2513 9.41C74.6313 9.41 74.1113 9.6 73.6913 9.98C73.2913 10.36 73.0113 10.78 72.8513 11.24C72.7113 11.68 72.5013 12.09 72.2213 12.47C71.9413 12.85 71.5913 13.04 71.1713 13.04C70.7313 13.04 70.3713 12.92 70.0913 12.68C69.8313 12.42 69.7013 12.08 69.7013 11.66C69.7013 10.7 70.2213 9.9 71.2613 9.26C72.3213 8.62 73.6513 8.3 75.2513 8.3C77.1313 8.3 78.6513 8.86 79.8113 9.98C80.9713 11.08 81.6613 12.6 81.8813 14.54L82.4813 20.3ZM76.1213 22.16C76.9413 22.16 77.6013 21.86 78.1013 21.26C78.6213 20.66 78.8613 19.95 78.8213 19.13L78.7313 18.2C78.6713 17.34 78.3813 16.66 77.8613 16.16C77.3413 15.66 76.6813 15.41 75.8813 15.41C75.0413 15.41 74.3613 15.68 73.8413 16.22C73.3213 16.74 73.0613 17.45 73.0613 18.35C73.0613 19.41 73.3413 20.31 73.9013 21.05C74.4813 21.79 75.2213 22.16 76.1213 22.16Z" fill="#020055"/>
</svg>
